#
#
#

mtllib halfUnitCube.mtl


#
# pCube1 Mesh
#
g pCube1 Mesh


#
# pCube1 Mesh_initialShadingGroup
#
usemtl pCube1 Mesh_initialShadingGroup

v -0.500000 -0.500000 0.500000
v 0.500000 -0.500000 0.500000
v 0.500000 0.500000 0.500000
v -0.500000 0.500000 0.500000
v 0.500000 0.500000 -0.500000
v -0.500000 0.500000 -0.500000
v 0.500000 -0.500000 -0.500000
v -0.500000 -0.500000 -0.500000
vn -0.408248 -0.408248 0.816497
vn 0.666667 -0.666667 0.333333
vn 0.408248 0.408248 0.816497
vn -0.666667 0.666667 0.333333
vn 0.666667 0.666667 -0.333333
vn -0.408248 0.408248 -0.816497
vn 0.408248 -0.408248 -0.816497
vn -0.666667 -0.666667 -0.333333
vt 0.000000 0.000000
vt 1.000000 0.000000
vt 1.000000 1.000000
vt 0.000000 1.000000
f 1/1/1 2/2/2 3/3/3
f 1/1/1 3/3/3 4/2/4
f 4/1/4 3/3/3 5/2/5
f 4/1/4 5/2/5 6/3/6
f 6/1/6 5/2/5 7/2/7
f 6/1/6 7/2/7 8/3/8
f 8/3/8 7/2/7 2/2/2
f 8/3/8 2/2/2 1/1/1
f 2/2/2 7/1/7 5/3/5
f 2/2/2 5/1/5 3/3/3
f 8/1/8 1/1/1 4/3/4
f 8/1/8 4/3/4 6/3/6
